<svg viewBox="0 0 400 300" xmlns="http://www.w3.org/2000/svg">
<defs>
<linearGradient id="cbg2" x1="0" y1="0" x2="0" y2="1">
<stop offset="0%" stop-color="#ffd9a0"/>
<stop offset="100%" stop-color="#d5522f"/>
</linearGradient>
</defs>
<rect width="400" height="300" fill="url(#cbg2)"/>
<!-- board -->
<ellipse cx="200" cy="235" rx="160" ry="24" fill="#8a6b45"/>
<!-- burger -->
<g>
<path d="M120 190 Q150 165 180 190 Z" fill="#e8825f"/>
<rect x="118" y="188" width="64" height="10" fill="#3fc8b0"/>
<rect x="118" y="196" width="64" height="14" fill="#8a3320"/>
<rect x="118" y="208" width="64" height="8" fill="#ffb347"/>
<rect x="118" y="214" width="64" height="10" fill="#fff4e0" rx="3"/>
</g>
<!-- tacos -->
<path d="M240 220 Q240 185 290 190 Q290 220 240 220 Z" fill="#ffe066"/>
<circle cx="255" cy="205" r="5" fill="#e35d3d"/>
<circle cx="268" cy="200" r="5" fill="#3fc8b0"/>
<circle cx="278" cy="208" r="5" fill="#c1401f"/>
<path d="M300 222 Q300 190 345 196 Q345 222 300 222 Z" fill="#ffe066"/>
<circle cx="313" cy="208" r="5" fill="#e35d3d"/>
<circle cx="328" cy="203" r="5" fill="#3fc8b0"/>
</svg>
